<?xml version="1.0" encoding="utf-8"?>
<!-- Generator: Adobe Illustrator 15.0.2, SVG Export Plug-In  -->
<!DOCTYPE svg PUBLIC "-//W3C//DTD SVG 1.1//EN" "http://www.w3.org/Graphics/SVG/1.1/DTD/svg11.dtd" [
	<!ENTITY ns_flows "http://ns.adobe.com/Flows/1.0/">
]>
<svg version="1.1"
	 xmlns="http://www.w3.org/2000/svg" xmlns:xlink="http://www.w3.org/1999/xlink" xmlns:a="http://ns.adobe.com/AdobeSVGViewerExtensions/3.0/"
	 x="0px" y="0px" width="40px" height="40px" viewBox="0 0 40 40" enable-background="new 0 0 40 40" xml:space="preserve">
<defs>
</defs>
<path fill="#FFFFFF" d="M38.998,38.998H1.002V1.002h37.996V38.998L38.998,38.998z M0,0v40h40V0H0L0,0z"/>
<path fill="#FFFFFF" d="M2.004,37.996h35.992V2.004H2.004V37.996L2.004,37.996z M38.331,38.331H1.669V1.669h36.662V38.331
	L38.331,38.331z"/>
<path fill="#FFFFFF" d="M10.451,21.71l3.734,10.423l0.789-0.79l-1.227-3.431l3.05-3.049l3.442,1.215l0.764-0.764l-10.379-3.778
	L10.451,21.71L10.451,21.71z M15.808,24.485l-2.42,2.42l-1.349-3.775L15.808,24.485L15.808,24.485z M22.95,23.368l0.154-0.154
	l-3.999-10.158l-0.77,0.77l3.084,7.853l-7.814-3.123l-0.77,0.771L22.95,23.368L22.95,23.368z M21.363,10.798l3.734,10.423
	l0.79-0.789L24.661,17l3.048-3.05l3.443,1.216l0.764-0.764l-10.379-3.778L21.363,10.798L21.363,10.798z M26.72,13.573l-2.42,2.419
	l-1.349-3.775L26.72,13.573L26.72,13.573z"/>
</svg>
