<?xml version="1.0" encoding="utf-8"?>
<!-- Generator: Adobe Illustrator 15.0.2, SVG Export Plug-In  -->
<!DOCTYPE svg PUBLIC "-//W3C//DTD SVG 1.1//EN" "http://www.w3.org/Graphics/SVG/1.1/DTD/svg11.dtd" [
	<!ENTITY ns_flows "http://ns.adobe.com/Flows/1.0/">
]>
<svg version="1.1"
	 xmlns="http://www.w3.org/2000/svg" xmlns:xlink="http://www.w3.org/1999/xlink" xmlns:a="http://ns.adobe.com/AdobeSVGViewerExtensions/3.0/"
	 x="0px" y="0px" width="100px" height="119px" viewBox="0 0 100 119" enable-background="new 0 0 100 119" xml:space="preserve">
<defs>
</defs>
<path fill="#282829" d="M97.495,97.494H2.505V2.506h94.989V97.494L97.495,97.494z M0,0v100h100V0H0L0,0z"/>
<path fill="#282829" d="M5.01,94.989h89.979V5.011H5.01V94.989L5.01,94.989z M95.849,95.848H4.151V4.152h91.697V95.848
	L95.849,95.848z"/>
<path fill="#282829" d="M77.881,37.938l-8.589-3.006l-7.66,7.659l3.078,8.59l-2.004,2.004L53.4,27.13l0.429-0.43l25.984,9.449
	L77.881,37.938L77.881,37.938z M57.408,58.411L32.14,48.318l1.933-1.933l19.542,7.803l-7.731-19.613l1.933-1.933l10.021,25.412
	L57.408,58.411L57.408,58.411z M50.608,65.211l-8.59-3.006l-7.659,7.588l3.078,8.59l-2.004,2.004l-9.306-26.057l0.43-0.429
	l25.984,9.449L50.608,65.211L50.608,65.211z M5.01,5.011v89.979h89.979V5.011H5.01L5.01,5.011z M39.513,61.203l-9.449-3.364
	l3.365,9.448L39.513,61.203L39.513,61.203z M66.786,33.93l-9.449-3.364l3.364,9.449L66.786,33.93L66.786,33.93z"/>
<path d="M11.596,108.303l4.653,10.021h-1.074l-1.575-3.293H9.306l-1.575,3.293H6.585l4.724-10.021H11.596z M11.453,110.451
	l-1.718,3.651h3.436L11.453,110.451z"/>
<path d="M33,110.021l-0.788,0.716c-0.573-0.572-1.145-1.001-1.861-1.288c-0.645-0.286-1.288-0.429-1.933-0.429
	c-0.787,0-1.503,0.214-2.219,0.572c-0.716,0.357-1.289,0.931-1.647,1.574c-0.358,0.644-0.573,1.36-0.573,2.076
	c0,0.788,0.215,1.503,0.573,2.147c0.43,0.716,0.931,1.217,1.647,1.575c0.716,0.358,1.503,0.573,2.362,0.573
	c1.002,0,1.933-0.287,2.649-0.859c0.716-0.573,1.145-1.36,1.289-2.29h-3.221v-1.003h4.294c0,1.576-0.501,2.793-1.36,3.723
	c-0.859,0.93-2.148,1.36-3.651,1.36c-1.861,0-3.293-0.644-4.438-1.933c-0.859-1.002-1.217-2.076-1.217-3.364
	c0-0.931,0.215-1.861,0.716-2.648c0.501-0.788,1.146-1.432,1.933-1.933c0.859-0.43,1.79-0.716,2.863-0.716
	c0.859,0,1.646,0.143,2.434,0.43C31.568,108.805,32.284,109.306,33,110.021z"/>
<path d="M41.016,108.303h5.727v1.002h-4.724v3.15h4.724v1.002h-4.724v3.937h4.724v1.002h-5.727V108.303z"/>
<path d="M54.045,118.396v-10.021h0.214l6.657,7.73v-7.73h1.001v10.021h-0.214l-6.658-7.587v7.587H54.045z"/>
<path d="M79.241,110.165l-0.788,0.572c-0.429-0.572-0.93-1.001-1.574-1.288c-0.645-0.286-1.289-0.429-2.005-0.429
	c-0.787,0-1.574,0.214-2.218,0.572c-0.716,0.357-1.217,0.931-1.575,1.574c-0.358,0.644-0.573,1.36-0.573,2.219
	c0,1.217,0.43,2.22,1.289,3.079c0.859,0.787,1.933,1.217,3.149,1.217c1.431,0,2.577-0.573,3.507-1.646l0.788,0.572
	c-0.501,0.644-1.145,1.146-1.861,1.504c-0.716,0.357-1.575,0.5-2.505,0.5c-1.79,0-3.15-0.573-4.151-1.79
	c-0.859-1.001-1.288-2.147-1.288-3.579c0-1.503,0.5-2.719,1.573-3.722c1.002-1.002,2.292-1.504,3.866-1.504
	c0.931,0,1.79,0.215,2.505,0.573C78.096,108.947,78.74,109.521,79.241,110.165z"/>
<path d="M85.898,108.303h1.146l2.576,4.152l2.506-4.152h1.146l-3.15,5.226v4.796H89.12v-4.796L85.898,108.303z"/>
</svg>
